<svg width="28" height="35" viewBox="0 0 28 35" fill="none" xmlns="http://www.w3.org/2000/svg">
<rect width="28" height="28" rx="7" fill="#414A66"/>
<path d="M12.4659 18.0909V17.9886C12.4773 16.9034 12.5909 16.0398 12.8068 15.3977C13.0227 14.7557 13.3295 14.2358 13.7273 13.8381C14.125 13.4403 14.6023 13.0739 15.1591 12.7386C15.4943 12.5341 15.7955 12.2926 16.0625 12.0142C16.3295 11.7301 16.5398 11.4034 16.6932 11.0341C16.8523 10.6648 16.9318 10.2557 16.9318 9.80682C16.9318 9.25 16.8011 8.76705 16.5398 8.35795C16.2784 7.94886 15.929 7.63352 15.4915 7.41193C15.054 7.19034 14.5682 7.07954 14.0341 7.07954C13.5682 7.07954 13.1193 7.17614 12.6875 7.36932C12.2557 7.5625 11.8949 7.86648 11.6051 8.28125C11.3153 8.69602 11.1477 9.23864 11.1023 9.90909H8.95455C9 8.94318 9.25 8.11648 9.70455 7.42898C10.1648 6.74148 10.7699 6.21591 11.5199 5.85227C12.2756 5.48864 13.1136 5.30682 14.0341 5.30682C15.0341 5.30682 15.9034 5.50568 16.642 5.90341C17.3864 6.30114 17.9602 6.84659 18.3636 7.53977C18.7727 8.23295 18.9773 9.02273 18.9773 9.90909C18.9773 10.5341 18.8807 11.0994 18.6875 11.6051C18.5 12.1108 18.2273 12.5625 17.8693 12.9602C17.517 13.358 17.0909 13.7102 16.5909 14.017C16.0909 14.3295 15.6903 14.6591 15.3892 15.0057C15.0881 15.3466 14.8693 15.7528 14.733 16.2244C14.5966 16.696 14.5227 17.2841 14.5114 17.9886V18.0909H12.4659ZM13.5568 23.1364C13.1364 23.1364 12.7756 22.9858 12.4744 22.6847C12.1733 22.3835 12.0227 22.0227 12.0227 21.6023C12.0227 21.1818 12.1733 20.821 12.4744 20.5199C12.7756 20.2187 13.1364 20.0682 13.5568 20.0682C13.9773 20.0682 14.3381 20.2187 14.6392 20.5199C14.9403 20.821 15.0909 21.1818 15.0909 21.6023C15.0909 21.8807 15.0199 22.1364 14.8778 22.3693C14.7415 22.6023 14.5568 22.7898 14.3239 22.9318C14.0966 23.0682 13.8409 23.1364 13.5568 23.1364Z" fill="#7B8CC2"/>
</svg>
